{
    "asset" : {
        "generator" : "Khronos glTF Blender I/O v3.4.50",
        "version" : "2.0"
    },
    "scene" : 0,
    "scenes" : [
        {
            "name" : "Scene",
            "nodes" : [
                0
            ]
        }
    ],
    "nodes" : [
        {
            "mesh" : 0,
            "name" : "Cube.001",
            "rotation" : [
                0.1807638257741928,
                0,
                0,
                0.9835265874862671
            ],
            "scale" : [
                1,
                3.14218807220459,
                0.49261730909347534
            ],
            "translation" : [
                -22.250598907470703,
                0.3630593717098236,
                3.0133919715881348
            ]
        }
    ],
    "animations" : [
        {
            "channels" : [
                {
                    "sampler" : 0,
                    "target" : {
                        "node" : 0,
                        "path" : "translation"
                    }
                }
            ],
            "name" : "Cube.001Action.004",
            "samplers" : [
                {
                    "input" : 4,
                    "interpolation" : "LINEAR",
                    "output" : 5
                }
            ]
        }
    ],
    "materials" : [
        {
            "doubleSided" : true,
            "name" : "Material",
            "pbrMetallicRoughness" : {}
        }
    ],
    "meshes" : [
        {
            "name" : "Cube.001",
            "primitives" : [
                {
                    "attributes" : {
                        "POSITION" : 0,
                        "TEXCOORD_0" : 1,
                        "NORMAL" : 2
                    },
                    "indices" : 3,
                    "material" : 0
                }
            ]
        }
    ],
    "accessors" : [
        {
            "bufferView" : 0,
            "componentType" : 5126,
            "count" : 192,
            "max" : [
                1,
                1.2288963794708252,
                7.12520694732666
            ],
            "min" : [
                -1,
                -1.964622139930725,
                -19.368122100830078
            ],
            "type" : "VEC3"
        },
        {
            "bufferView" : 1,
            "componentType" : 5126,
            "count" : 192,
            "type" : "VEC2"
        },
        {
            "bufferView" : 2,
            "componentType" : 5126,
            "count" : 192,
            "type" : "VEC3"
        },
        {
            "bufferView" : 3,
            "componentType" : 5123,
            "count" : 288,
            "type" : "SCALAR"
        },
        {
            "bufferView" : 4,
            "componentType" : 5126,
            "count" : 61,
            "max" : [
                2.5
            ],
            "min" : [
                0
            ],
            "type" : "SCALAR"
        },
        {
            "bufferView" : 5,
            "componentType" : 5126,
            "count" : 61,
            "type" : "VEC3"
        }
    ],
    "bufferViews" : [
        {
            "buffer" : 0,
            "byteLength" : 2304,
            "byteOffset" : 0,
            "target" : 34962
        },
        {
            "buffer" : 0,
            "byteLength" : 1536,
            "byteOffset" : 2304,
            "target" : 34962
        },
        {
            "buffer" : 0,
            "byteLength" : 2304,
            "byteOffset" : 3840,
            "target" : 34962
        },
        {
            "buffer" : 0,
            "byteLength" : 576,
            "byteOffset" : 6144,
            "target" : 34963
        },
        {
            "buffer" : 0,
            "byteLength" : 244,
            "byteOffset" : 6720
        },
        {
            "buffer" : 0,
            "byteLength" : 732,
            "byteOffset" : 6964
        }
    ],
    "buffers" : [
        {
            "byteLength" : 7696,
            "uri" : "win_2.bin"
        }
    ]
}
